<?xml version="1.0" encoding="UTF-8"?>
<svg id="Layer_1" data-name="Layer 1" xmlns="http://www.w3.org/2000/svg" viewBox="0 0 380.26 88.58">
  <path d="M61.82,41.67c-2.87-31.2-28.34-28.5-30.73-28.5s-9.87.64-12.64.72-17.97-.09-17.97-.09l-.04,2.75-.11,4.46,7.48,2.11.16,54.91-7.96,2.96v5.73s17.4.22,19.95.38c2.55.16,16.7,1.36,24.5-2.14,7.8-3.5,20.24-12.08,17.37-43.29ZM46.48,53.74c-1.29,20.11-7.49,25.2-12.8,25.37-4.61.15-11.32-2.18-11.38-2.46l-.27-52.24s5.16-2.17,8.63-2.54c8.57-.93,17.5,5.8,15.83,31.87Z"/>
  <path d="M68.8,33.03v7.86l6.31,1.92.14,36.82-6.72,1.55v5.76h31.82l-.14-5.62-11.11-1.82-.14-30.68s5.87-4.7,17.64-1.98l.14-14.13s-12.26-1.45-18.77,8.16l-.18-.02v-7.96s-3.47-1.9-3.47-1.9l-15.52,2.06Z"/>
  <polygon points="114.2 33.1 114.6 40.91 121.58 42.76 121.45 79.35 114.73 81.41 114.6 87.07 142.13 87.07 142.13 81.28 135.55 79.35 135.41 33.19 131.52 30.95 114.2 33.1"/>
  <path d="M157.21,71.23l-8.19-.12v13.03s11.76,4.27,20.18,4.04c8.42-.23,20.64-2.31,22.26-14.99,1.61-12.69-13.03-17.41-17.87-19.49-4.84-2.08-11.64-4.42-11.83-8.48-.36-7.82,14.2-6.96,17.06-3.99l1.69,5.67h7.84l-.12-12.69s-9.57-3.23-17.41-3.11-20.53,2.31-21.56,15.11,13.03,17.76,19.6,20.3,10,3.69,9.23,8.76c-1.03,6.74-15.2,5.25-19.12,2.41"/>
  <circle cx="128.53" cy="16.83" r="8.17"/>
  <path d="M206.71,18.3l9.89-.14.41,12.53,12.74,2v8.66h-12.54v32.64s-1.8,7.9,13.02,1.87l3.23,7.09s-8.3,5.42-17.37,5.48-12.61-4.59-12.78-10.79,0-34.28,0-34.28l-6.64-1v-7.59s5.47-1.94,7.19-5.48,2.85-11,2.85-11Z"/>
  <path d="M251.44,31.57l-15.19,1.17v8.66l5.09,1.49s.4,26.97.49,28.95-.8,16.48,15.72,16.62c12.17.1,18.43-8.13,18.43-8.13v4.35s.56,4.01,6.49,3.68c5.93-.33,11.11-1.42,11.11-1.42v-5.51l-5.35-1v-46.38l-4.31-2.33-16.23,1.06v8.42l6.49,1.46v29.27s-5.93,5.53-12.51,5.47c-5.37-.05-6.06-3.15-6.2-8.22-.12-4.47,0-35.24,0-35.24l-4.04-2.38Z"/>
  <polygon points="316.89 7.91 298.47 10.07 298.47 18.33 305.9 19.55 305.9 79.8 299.08 81.59 299.08 87.5 326.56 87.5 326.56 81.59 319.63 79.88 319.63 9.73 316.89 7.91"/>
  <path d="M374.98,80.72l-.33-34.36s1.1-14.98-19.61-14.98c-13.44,0-23.13,7.71-23.13,7.71l2.97,6.17s9.8-4.96,17.4-4.3c7.6.66,9.47,1.98,9.47,12.89,0,0-31.94-.66-31.94,18.39s21.04,20.38,32.71,8.7v5.07s-.77,3.52,8.48,2.31l9.25-1.21v-5.4l-5.29-1ZM361.76,72.65s-4.92,4.43-9.03,4.74c-3.56.28-8.26-.66-8.48-6.8-.31-8.37,11.65-9.81,17.51-8.35v10.41Z"/>
  <polygon points="65.63 8.49 80.41 24.01 96.46 24.01 112.42 8.01 102.9 0 88.71 12.73 76.41 .32 65.63 8.49"/>
</svg>